<mxfile host="app.diagrams.net" modified="2021-12-17T05:49:00.629Z" agent="5.0 (Macintosh; Intel Mac OS X 10_15_7) AppleWebKit/537.36 (KHTML, like Gecko) Chrome/96.0.4664.93 Safari/537.36" etag="_VWc4tszNUdwOYrTvoTi" version="15.9.6" type="github">
  <diagram id="KKWoHcuoe7G9MJ5qpHvn" name="Page-1">
    <mxGraphModel dx="2066" dy="769" grid="1" gridSize="10" guides="1" tooltips="1" connect="1" arrows="1" fold="1" page="1" pageScale="1" pageWidth="850" pageHeight="1100" math="0" shadow="0">
      <root>
        <mxCell id="0" />
        <mxCell id="1" parent="0" />
        <mxCell id="aVVi5ToswDDgE1M3d0lu-2" value="Python API System" style="rounded=0;whiteSpace=wrap;html=1;fontStyle=1;strokeColor=#10739e;strokeWidth=3;fillColor=#b1ddf0;" vertex="1" parent="1">
          <mxGeometry x="160" y="150" width="540" height="60" as="geometry" />
        </mxCell>
        <mxCell id="aVVi5ToswDDgE1M3d0lu-3" value="Tracer/Engine" style="rounded=0;whiteSpace=wrap;html=1;fontStyle=1;strokeColor=#314354;strokeWidth=3;fillColor=#647687;fontColor=#ffffff;" vertex="1" parent="1">
          <mxGeometry x="160" y="220" width="260" height="200" as="geometry" />
        </mxCell>
        <mxCell id="aVVi5ToswDDgE1M3d0lu-5" value="Executor" style="rounded=0;whiteSpace=wrap;html=1;fontStyle=1;strokeColor=#314354;strokeWidth=3;fillColor=#647687;fontColor=#ffffff;" vertex="1" parent="1">
          <mxGeometry x="440" y="360" width="260" height="60" as="geometry" />
        </mxCell>
        <mxCell id="aVVi5ToswDDgE1M3d0lu-6" value="Program" style="rounded=0;whiteSpace=wrap;html=1;fontStyle=1;strokeColor=#001DBC;strokeWidth=3;fillColor=#0050ef;fontColor=#ffffff;" vertex="1" parent="1">
          <mxGeometry x="440" y="220" width="260" height="60" as="geometry" />
        </mxCell>
        <mxCell id="aVVi5ToswDDgE1M3d0lu-7" value="OperatorWithKernel" style="rounded=0;whiteSpace=wrap;html=1;fontStyle=1;strokeColor=#432D57;strokeWidth=3;fillColor=#76608a;fontColor=#ffffff;" vertex="1" parent="1">
          <mxGeometry x="160" y="500" width="540" height="60" as="geometry" />
        </mxCell>
        <mxCell id="aVVi5ToswDDgE1M3d0lu-8" value="OpKernel" style="rounded=0;whiteSpace=wrap;html=1;fontStyle=1;strokeColor=#432D57;strokeWidth=3;fillColor=#76608a;fontColor=#ffffff;" vertex="1" parent="1">
          <mxGeometry x="160" y="570" width="540" height="60" as="geometry" />
        </mxCell>
        <mxCell id="aVVi5ToswDDgE1M3d0lu-9" value="&lt;font color=&quot;#ffffff&quot;&gt;Device Code&lt;/font&gt;" style="rounded=0;whiteSpace=wrap;html=1;fontStyle=1;strokeColor=#000000;strokeWidth=3;fillColor=#000000;" vertex="1" parent="1">
          <mxGeometry x="160" y="640" width="540" height="60" as="geometry" />
        </mxCell>
        <mxCell id="aVVi5ToswDDgE1M3d0lu-10" value="Graph" style="rounded=0;whiteSpace=wrap;html=1;fontStyle=1;strokeColor=#001DBC;strokeWidth=3;fillColor=#0050ef;fontColor=#ffffff;" vertex="1" parent="1">
          <mxGeometry x="440" y="290" width="260" height="60" as="geometry" />
        </mxCell>
        <mxCell id="aVVi5ToswDDgE1M3d0lu-11" value="OpMaker/GradOpMaker" style="rounded=0;whiteSpace=wrap;html=1;fontStyle=1;strokeColor=#432D57;strokeWidth=3;fillColor=#76608a;fontColor=#ffffff;" vertex="1" parent="1">
          <mxGeometry x="160" y="430" width="540" height="60" as="geometry" />
        </mxCell>
        <mxCell id="aVVi5ToswDDgE1M3d0lu-15" value="&lt;font color=&quot;#000000&quot;&gt;Tensor&lt;/font&gt;" style="rounded=0;whiteSpace=wrap;html=1;fontColor=#ffffff;strokeColor=#006EAF;strokeWidth=3;fillColor=#1ba1e2;fontStyle=1" vertex="1" parent="1">
          <mxGeometry x="860" y="150" width="220" height="60" as="geometry" />
        </mxCell>
        <mxCell id="aVVi5ToswDDgE1M3d0lu-17" value="Variable(VarDesc)" style="rounded=0;whiteSpace=wrap;html=1;fontColor=#ffffff;strokeColor=#006EAF;strokeWidth=3;fillColor=#1ba1e2;fontStyle=1" vertex="1" parent="1">
          <mxGeometry x="1100" y="150" width="210" height="200" as="geometry" />
        </mxCell>
        <mxCell id="aVVi5ToswDDgE1M3d0lu-18" value="VariableWrapper" style="rounded=0;whiteSpace=wrap;html=1;fontColor=#ffffff;strokeColor=#001DBC;strokeWidth=3;fillColor=#0050ef;fontStyle=1" vertex="1" parent="1">
          <mxGeometry x="860" y="290" width="220" height="60" as="geometry" />
        </mxCell>
        <mxCell id="aVVi5ToswDDgE1M3d0lu-19" value="Variable" style="rounded=0;whiteSpace=wrap;html=1;fontColor=#ffffff;strokeColor=#432D57;strokeWidth=3;fillColor=#76608a;fontStyle=1" vertex="1" parent="1">
          <mxGeometry x="860" y="360" width="450" height="60" as="geometry" />
        </mxCell>
        <mxCell id="aVVi5ToswDDgE1M3d0lu-22" value="framework::Tensor" style="rounded=0;whiteSpace=wrap;html=1;fontColor=#ffffff;strokeColor=#432D57;strokeWidth=3;fillColor=#76608a;fontStyle=1" vertex="1" parent="1">
          <mxGeometry x="860" y="430" width="100" height="60" as="geometry" />
        </mxCell>
        <mxCell id="aVVi5ToswDDgE1M3d0lu-27" value="LoDTensor" style="rounded=0;whiteSpace=wrap;html=1;fontColor=#ffffff;strokeColor=#432D57;strokeWidth=3;fillColor=#76608a;fontStyle=1" vertex="1" parent="1">
          <mxGeometry x="970" y="430" width="110" height="60" as="geometry" />
        </mxCell>
        <mxCell id="aVVi5ToswDDgE1M3d0lu-28" value="SelectedRows" style="rounded=0;whiteSpace=wrap;html=1;fontColor=#ffffff;strokeColor=#432D57;strokeWidth=3;fillColor=#76608a;fontStyle=1" vertex="1" parent="1">
          <mxGeometry x="1090" y="430" width="110" height="60" as="geometry" />
        </mxCell>
        <mxCell id="aVVi5ToswDDgE1M3d0lu-29" value="Raw.." style="rounded=0;whiteSpace=wrap;html=1;fontColor=#ffffff;strokeColor=#432D57;strokeWidth=3;fillColor=#76608a;fontStyle=1" vertex="1" parent="1">
          <mxGeometry x="1210" y="430" width="100" height="60" as="geometry" />
        </mxCell>
        <mxCell id="aVVi5ToswDDgE1M3d0lu-30" value="Allocation" style="rounded=0;whiteSpace=wrap;html=1;fontColor=#FFFFFF;strokeColor=#000000;strokeWidth=3;fillColor=#000000;fontStyle=1" vertex="1" parent="1">
          <mxGeometry x="860" y="500" width="450" height="60" as="geometry" />
        </mxCell>
        <mxCell id="aVVi5ToswDDgE1M3d0lu-31" value="VarBase" style="rounded=0;whiteSpace=wrap;html=1;fontColor=#ffffff;strokeColor=#001DBC;strokeWidth=3;fillColor=#0050ef;fontStyle=1" vertex="1" parent="1">
          <mxGeometry x="860" y="220" width="220" height="60" as="geometry" />
        </mxCell>
        <mxCell id="aVVi5ToswDDgE1M3d0lu-41" value="Python API System" style="rounded=0;whiteSpace=wrap;html=1;fontStyle=1;strokeColor=#10739e;strokeWidth=3;fillColor=#b1ddf0;" vertex="1" parent="1">
          <mxGeometry x="100" y="760" width="600" height="60" as="geometry" />
        </mxCell>
        <mxCell id="aVVi5ToswDDgE1M3d0lu-43" value="Executor" style="rounded=0;whiteSpace=wrap;html=1;fontStyle=1;strokeColor=#314354;strokeWidth=3;fillColor=#647687;fontColor=#ffffff;" vertex="1" parent="1">
          <mxGeometry x="440" y="970" width="260" height="60" as="geometry" />
        </mxCell>
        <mxCell id="aVVi5ToswDDgE1M3d0lu-44" value="Program" style="rounded=0;whiteSpace=wrap;html=1;fontStyle=1;strokeColor=#001DBC;strokeWidth=3;fillColor=#0050ef;fontColor=#ffffff;" vertex="1" parent="1">
          <mxGeometry x="440" y="830" width="260" height="60" as="geometry" />
        </mxCell>
        <mxCell id="aVVi5ToswDDgE1M3d0lu-45" value="OperatorWithKernel" style="rounded=0;whiteSpace=wrap;html=1;fontStyle=1;strokeColor=#432D57;strokeWidth=3;fillColor=#76608a;fontColor=#ffffff;" vertex="1" parent="1">
          <mxGeometry x="440" y="1110" width="260" height="60" as="geometry" />
        </mxCell>
        <mxCell id="aVVi5ToswDDgE1M3d0lu-46" value="Paddle Tensor Library(Pten) Kernel" style="rounded=0;whiteSpace=wrap;html=1;fontStyle=1;strokeColor=#2D7600;strokeWidth=3;fillColor=#60a917;fontColor=#ffffff;" vertex="1" parent="1">
          <mxGeometry x="90" y="1180" width="610" height="60" as="geometry" />
        </mxCell>
        <mxCell id="aVVi5ToswDDgE1M3d0lu-47" value="&lt;font color=&quot;#ffffff&quot;&gt;Device Code&lt;/font&gt;" style="rounded=0;whiteSpace=wrap;html=1;fontStyle=1;strokeColor=#000000;strokeWidth=3;fillColor=#000000;" vertex="1" parent="1">
          <mxGeometry x="90" y="1250" width="610" height="60" as="geometry" />
        </mxCell>
        <mxCell id="aVVi5ToswDDgE1M3d0lu-48" value="Graph" style="rounded=0;whiteSpace=wrap;html=1;fontStyle=1;strokeColor=#001DBC;strokeWidth=3;fillColor=#0050ef;fontColor=#ffffff;" vertex="1" parent="1">
          <mxGeometry x="440" y="900" width="260" height="60" as="geometry" />
        </mxCell>
        <mxCell id="aVVi5ToswDDgE1M3d0lu-49" value="OpMaker/GradOpMaker" style="rounded=0;whiteSpace=wrap;html=1;fontStyle=1;strokeColor=#432D57;strokeWidth=3;fillColor=#76608a;fontColor=#ffffff;" vertex="1" parent="1">
          <mxGeometry x="440" y="1040" width="260" height="60" as="geometry" />
        </mxCell>
        <mxCell id="aVVi5ToswDDgE1M3d0lu-72" value="" style="group" vertex="1" connectable="0" parent="1">
          <mxGeometry x="100" y="1040" width="170" height="120" as="geometry" />
        </mxCell>
        <mxCell id="aVVi5ToswDDgE1M3d0lu-73" value="AutoGradAPI" style="rounded=0;whiteSpace=wrap;html=1;fontStyle=1;strokeColor=#2D7600;strokeWidth=3;fillColor=#60a917;fontColor=#ffffff;" vertex="1" parent="aVVi5ToswDDgE1M3d0lu-72">
          <mxGeometry width="120" height="70" as="geometry" />
        </mxCell>
        <mxCell id="aVVi5ToswDDgE1M3d0lu-74" value="AutoGradAPI" style="rounded=0;whiteSpace=wrap;html=1;fontStyle=1;strokeColor=#2D7600;strokeWidth=3;fillColor=#60a917;fontColor=#ffffff;" vertex="1" parent="aVVi5ToswDDgE1M3d0lu-72">
          <mxGeometry x="10" y="10" width="120" height="70" as="geometry" />
        </mxCell>
        <mxCell id="aVVi5ToswDDgE1M3d0lu-75" value="AutoGradAPI" style="rounded=0;whiteSpace=wrap;html=1;fontStyle=1;strokeColor=#2D7600;strokeWidth=3;fillColor=#60a917;fontColor=#ffffff;" vertex="1" parent="aVVi5ToswDDgE1M3d0lu-72">
          <mxGeometry x="20" y="20" width="120" height="70" as="geometry" />
        </mxCell>
        <mxCell id="aVVi5ToswDDgE1M3d0lu-76" value="C++ API" style="rounded=0;whiteSpace=wrap;html=1;fontStyle=1;strokeColor=#2D7600;strokeWidth=3;fillColor=#60a917;fontColor=#ffffff;" vertex="1" parent="aVVi5ToswDDgE1M3d0lu-72">
          <mxGeometry x="30" y="30" width="120" height="70" as="geometry" />
        </mxCell>
        <mxCell id="aVVi5ToswDDgE1M3d0lu-80" value="AutoGradAPI" style="rounded=0;whiteSpace=wrap;html=1;fontStyle=1;strokeColor=#2D7600;strokeWidth=3;fillColor=#60a917;fontColor=#ffffff;" vertex="1" parent="1">
          <mxGeometry x="270" y="875" width="120" height="70" as="geometry" />
        </mxCell>
        <mxCell id="aVVi5ToswDDgE1M3d0lu-81" value="AutoGradAPI" style="rounded=0;whiteSpace=wrap;html=1;fontStyle=1;strokeColor=#2D7600;strokeWidth=3;fillColor=#60a917;fontColor=#ffffff;" vertex="1" parent="1">
          <mxGeometry x="280" y="885" width="120" height="70" as="geometry" />
        </mxCell>
        <mxCell id="aVVi5ToswDDgE1M3d0lu-82" value="AutoGradAPI" style="rounded=0;whiteSpace=wrap;html=1;fontStyle=1;strokeColor=#2D7600;strokeWidth=3;fillColor=#60a917;fontColor=#ffffff;" vertex="1" parent="1">
          <mxGeometry x="290" y="895" width="120" height="70" as="geometry" />
        </mxCell>
        <mxCell id="aVVi5ToswDDgE1M3d0lu-83" value="xxx_GradNode" style="rounded=0;whiteSpace=wrap;html=1;fontStyle=1;strokeColor=#2D7600;strokeWidth=3;fillColor=#60a917;fontColor=#ffffff;" vertex="1" parent="1">
          <mxGeometry x="300" y="905" width="120" height="70" as="geometry" />
        </mxCell>
        <mxCell id="aVVi5ToswDDgE1M3d0lu-84" value="" style="group" vertex="1" connectable="0" parent="1">
          <mxGeometry x="270" y="1040" width="170" height="120" as="geometry" />
        </mxCell>
        <mxCell id="aVVi5ToswDDgE1M3d0lu-85" value="AutoGradAPI" style="rounded=0;whiteSpace=wrap;html=1;fontStyle=1;strokeColor=#2D7600;strokeWidth=3;fillColor=#60a917;fontColor=#ffffff;" vertex="1" parent="aVVi5ToswDDgE1M3d0lu-84">
          <mxGeometry width="120" height="70" as="geometry" />
        </mxCell>
        <mxCell id="aVVi5ToswDDgE1M3d0lu-86" value="AutoGradAPI" style="rounded=0;whiteSpace=wrap;html=1;fontStyle=1;strokeColor=#2D7600;strokeWidth=3;fillColor=#60a917;fontColor=#ffffff;" vertex="1" parent="aVVi5ToswDDgE1M3d0lu-84">
          <mxGeometry x="10" y="10" width="120" height="70" as="geometry" />
        </mxCell>
        <mxCell id="aVVi5ToswDDgE1M3d0lu-87" value="AutoGradAPI" style="rounded=0;whiteSpace=wrap;html=1;fontStyle=1;strokeColor=#2D7600;strokeWidth=3;fillColor=#60a917;fontColor=#ffffff;" vertex="1" parent="aVVi5ToswDDgE1M3d0lu-84">
          <mxGeometry x="20" y="20" width="120" height="70" as="geometry" />
        </mxCell>
        <mxCell id="aVVi5ToswDDgE1M3d0lu-88" value="C++ Grad API" style="rounded=0;whiteSpace=wrap;html=1;fontStyle=1;strokeColor=#2D7600;strokeWidth=3;fillColor=#60a917;fontColor=#ffffff;" vertex="1" parent="aVVi5ToswDDgE1M3d0lu-84">
          <mxGeometry x="30" y="30" width="120" height="70" as="geometry" />
        </mxCell>
        <mxCell id="aVVi5ToswDDgE1M3d0lu-93" value="AutoGradAPI" style="rounded=0;whiteSpace=wrap;html=1;fontStyle=1;strokeColor=#2D7600;strokeWidth=3;fillColor=#60a917;fontColor=#ffffff;" vertex="1" parent="1">
          <mxGeometry x="100" y="870" width="120" height="70" as="geometry" />
        </mxCell>
        <mxCell id="aVVi5ToswDDgE1M3d0lu-94" value="AutoGradAPI" style="rounded=0;whiteSpace=wrap;html=1;fontStyle=1;strokeColor=#2D7600;strokeWidth=3;fillColor=#60a917;fontColor=#ffffff;" vertex="1" parent="1">
          <mxGeometry x="110" y="880" width="120" height="70" as="geometry" />
        </mxCell>
        <mxCell id="aVVi5ToswDDgE1M3d0lu-95" value="AutoGradAPI" style="rounded=0;whiteSpace=wrap;html=1;fontStyle=1;strokeColor=#2D7600;strokeWidth=3;fillColor=#60a917;fontColor=#ffffff;" vertex="1" parent="1">
          <mxGeometry x="120" y="890" width="120" height="70" as="geometry" />
        </mxCell>
        <mxCell id="aVVi5ToswDDgE1M3d0lu-96" value="xxx_Autograd API" style="rounded=0;whiteSpace=wrap;html=1;fontStyle=1;strokeColor=#2D7600;strokeWidth=3;fillColor=#60a917;fontColor=#ffffff;" vertex="1" parent="1">
          <mxGeometry x="130" y="900" width="120" height="70" as="geometry" />
        </mxCell>
      </root>
    </mxGraphModel>
  </diagram>
</mxfile>
